<svg height="512pt" viewBox="-84 0 512 512.00023" width="512pt" xmlns="http://www.w3.org/2000/svg" xmlns:xlink="http://www.w3.org/1999/xlink"><linearGradient id="a"><stop offset="0" stop-color="#ffe548"/><stop offset=".5071" stop-color="#ffe346"/><stop offset=".6898" stop-color="#ffdd3f"/><stop offset=".82" stop-color="#ffd234"/><stop offset=".9245" stop-color="#ffc223"/><stop offset="1" stop-color="#ffb211"/></linearGradient><radialGradient id="b" cx="74.2295388868" cy="243.5167286754" gradientUnits="userSpaceOnUse" r="336.2567468382" xlink:href="#a"/><linearGradient id="c"><stop offset="0" stop-color="#ffb211" stop-opacity="0"/><stop offset=".1722" stop-color="#ffad13" stop-opacity=".172549"/><stop offset=".383" stop-color="#ff9e1a" stop-opacity=".384314"/><stop offset=".614" stop-color="#ff8525" stop-opacity=".615686"/><stop offset=".8577" stop-color="#ff6334" stop-opacity=".858824"/><stop offset="1" stop-color="#ff4b3e"/></linearGradient><linearGradient id="d" gradientUnits="userSpaceOnUse" x1="226.014614303" x2="203.1078248524" xlink:href="#c" y1="164.4858805992" y2="103.0652298938"/><linearGradient id="e" gradientTransform="matrix(.979727 -.219256 .219256 .979727 -234.599091 192.194447)" gradientUnits="userSpaceOnUse" x1="460.7332" x2="517.5966" y1="-39.2743" y2="28.0868"><stop offset="0" stop-color="#acc130"/><stop offset="1" stop-color="#97a03b"/></linearGradient><linearGradient id="f" gradientTransform="matrix(.979727 -.219256 .219256 .979727 -234.599091 192.194447)" gradientUnits="userSpaceOnUse" x1="495.4465" x2="443.3972" y1="-5.8384" y2="-52.2018"><stop offset="0" stop-color="#97a03b" stop-opacity="0"/><stop offset="1" stop-color="#575c55"/></linearGradient><linearGradient id="g" gradientTransform="matrix(.979727 -.219256 .219256 .979727 -234.599091 192.194447)" gradientUnits="userSpaceOnUse" x1="449.0468" x2="462.6068" y1="-36.6895" y2="-19.1928"><stop offset="0" stop-color="#97a03b"/><stop offset="1" stop-color="#6c7d47"/></linearGradient><linearGradient id="h" gradientUnits="userSpaceOnUse" x1="126.937552123" x2="180.4648661034" y1="81.5674449702" y2="81.5674449702"><stop offset="0" stop-color="#c08552"/><stop offset="1" stop-color="#895738"/></linearGradient><linearGradient id="i" gradientUnits="userSpaceOnUse" x1="221.2857401142" x2="162.774053796" xlink:href="#c" y1="199.8044589124" y2="73.3162100522"/><linearGradient id="j" gradientUnits="userSpaceOnUse" x1="186.4518553426" x2="435.4184878106" xlink:href="#c" y1="352.2992067904" y2="265.1611866032"/><radialGradient id="k" cx="178.6598143474" cy="71.7598297756" gradientUnits="userSpaceOnUse" r="72.5732202034" xlink:href="#a"/><linearGradient id="l" gradientUnits="userSpaceOnUse" x1="111.713074993" x2="-102.2142702622" y1="351.6192504198" y2="207.4249296378"><stop offset=".0013" stop-color="#e7eeed" stop-opacity="0"/><stop offset=".7731" stop-color="#f9fbfa" stop-opacity=".772549"/><stop offset="1" stop-color="#fff"/></linearGradient><path d="m261.566406 174.023438c0-39.367188-31.914062-71.277344-71.28125-71.277344h-37.1875c-39.367187 0-71.28125 31.914062-71.28125 71.277344v.003906c0 27.625-10.882812 54.230468-30.570312 73.613281-31.5 31.007813-51.082032 74.089844-51.246094 121.746094-.320312 94.574219 76.78125 142.433593 171.359375 142.613281 94.972656.179688 172.023437-47.082031 172.023437-142.015625 0-47.570313-19.347656-90.617187-50.601562-121.707031-19.808594-19.707032-31.214844-46.3125-31.214844-74.253906zm0 0" fill="url(#b)"/><path d="m276.332031 227.214844-93.132812-93.085938-4.375-4.378906-.503907-.304688-.507812-.308593c.027344-.109375.054688-.222657.082031-.332031-1.101562-1.726563-4.199219-6.789063-7.203125-13.964844.722656.082031 1.4375.148437 2.132813.148437 7.769531 0 17.210937-5.769531 27.613281-11.519531 26.476562 3.773438 48.269531 22.089844 57.003906 46.609375 2.671875 7.480469 4.128906 15.542969 4.128906 23.941406 0 18.917969 5.230469 37.234375 14.761719 53.195313zm0 0" fill="url(#d)"/><path d="m176.160156 119.695312s-63.863281-93.203124 77.109375-119.507812c5.886719-1.09375 11.566407 2.683594 12.90625 8.515625 6.429688 28.042969 14.199219 104.542969-90.015625 110.992187zm0 0" fill="url(#e)"/><path d="m266.175781 8.703125c-.742187-3.234375-2.820312-5.832031-5.527343-7.320313-46.707032 50.929688-84.488282 118.3125-84.488282 118.3125 104.214844-6.449218 96.445313-82.949218 90.015625-110.992187zm0 0" fill="url(#f)"/><path d="m242.902344 43.246094c-1.089844.390625-2.210938.699218-3.3125 1.019531-1.101563.320313-2.199219.644531-3.308594.90625-1.101562.285156-2.253906.410156-3.382812.554687-1.132813.140626-2.195313.453126-3.222657.929688-1.011719.492188-2.011719 1.027344-3.007812 1.695312.828125-1.328124 1.65625-2.65625 2.484375-3.984374l4.128906-6.445313c1.363281-2.160156 2.851562-4.214844 4.25-6.355469 2.871094-4.21875 5.878906-8.296875 9.179688-12.1875l-.804688-.871094-2.949219 2.539063-1.484375 1.28125c-.480468.4375-.925781.902344-1.394531 1.351563-1.808594 1.839843-3.730469 3.632812-5.441406 5.558593-3.554688 3.773438-6.898438 7.710938-10.273438 11.632813-.628906.773437-1.257812 1.546875-1.890625 2.316406.003906-.828125-.054687-1.652344-.25-2.476562-.253906-1.109376-.535156-2.234376-.648437-3.367188-.140625-1.132812-.214844-2.269531-.292969-3.414062-.082031-1.148438-.179688-2.304688-.191406-3.460938-.132813-2.332031-.050782-4.667969-.03125-7.070312l-.640625-.160157c-1.035157 2.183594-1.914063 4.460938-2.59375 6.8125-.355469 1.171875-.625 2.363281-.910157 3.5625-.222656 1.203125-.449218 2.414063-.609374 3.636719-.167969 1.222656-.410157 2.449219-.597657 3.695312-.160156 1.238282-.109375 2.484376.199219 3.703126.066406.238281.132812.472656.207031.710937.789063 2.585937.21875 5.394531-1.441406 7.523437l-.03125.039063c-2.894531 3.703125-5.699219 7.460937-8.53125 11.210937-.023437-1.164062-.144531-2.261718-.316406-3.347656-.191407-1.117187-.542969-2.167968-1.070313-3.175781-.527344-1.011719-1.078125-2.03125-1.472656-3.101563-.417969-1.058593-.777344-2.144531-1.140625-3.234374-.363281-1.085938-.75-2.183594-1.050781-3.300782-.714844-2.222656-1.21875-4.503906-1.800782-6.835937l-.660156.003906c-.457031 2.371094-.734375 4.800781-.808594 7.246094-.046874 1.222656-.011718 2.445312.011719 3.675781.085938 1.222656.171875 2.453125.324219 3.675781.140625 1.222657.210938 2.476563.34375 3.726563.15625 1.242187.515625 2.433594 1.121094 3.535156.273437.480469.566406.957031.886718 1.421875 1.5625 2.261719 1.386719 5.300781-.296874 7.476563-1.445313 1.867187-2.894532 3.730468-4.324219 5.605468-1.820313 2.371094-3.511719 4.828125-5.101563 7.347656-.042968-1-.15625-1.960937-.304687-2.910156-.191407-1.113281-.542969-2.164062-1.074219-3.175781-.523438-1.011719-1.078125-2.027344-1.46875-3.097656-.417969-1.0625-.777344-2.144531-1.140625-3.234375-.367187-1.089844-.75-2.183594-1.050781-3.300782-.714844-2.222656-1.21875-4.503906-1.800782-6.839843l-.660156.007812c-.457031 2.371094-.738281 4.800781-.808594 7.242188-.046874 1.222656-.011718 2.445312.011719 3.679687.085938 1.21875.171875 2.449219.324219 3.671875.140625 1.226563.210938 2.476563.34375 3.726563.15625 1.242187.515625 2.4375 1.121094 3.535156.613281 1.085938 1.332031 2.140625 2.234375 3.085938 1.035156 1.085937 1.300781 2.683593.613281 4.011718-1.78125 3.449219-4.953125 9.707032-6.40625 13.148438-1.996094 4.808594-3.816406 9.722656-5.035156 14.988281l1.011718.613281c4.113282-3.484375 7.707032-7.273437 11.128907-11.160156 3.410156-3.898438 6.613281-7.914062 9.648437-12.03125.054688-.074219.109375-.148438.164063-.21875.976562-1.328125 2.71875-1.75 4.242187-1.125 1.128906.460938 2.285156.742188 3.433594.925781 1.242188.1875 2.484375.113281 3.707031-.171875 1.214844-.308594 2.414063-.671875 3.613281-.964844 1.199219-.28125 2.382813-.625 3.558594-.96875 1.164063-.402343 2.324219-.792968 3.453125-1.261718 2.269531-.914063 4.449219-2.015625 6.515625-3.265625l-.21875-.621094c-2.394531.261719-4.707031.578125-7.039062.679687-1.152344.101563-2.3125.121094-3.460938.152344-1.148437.039063-2.289062.078125-3.429687.050782-1.140625 0-2.289063-.164063-3.417969-.308594-1.128906-.144532-2.238281-.109375-3.351562.09375-1.203126.242187-2.402344.554687-3.640626 1.011718 1.445313-2.257812 2.820313-4.5625 4.117188-6.914062 1.023438-1.886719 2.425781-4.417969 3.667969-6.636719 1.320312-2.359375 4.003906-3.679687 6.652343-3.128906 1.292969.265625 2.621094.34375 3.816407.539063 1.238281.1875 2.484375.109374 3.703125-.171876 1.21875-.3125 2.417968-.675781 3.617187-.96875 1.199219-.277343 2.382813-.625 3.558594-.96875 1.164063-.402343 2.320313-.792968 3.453125-1.261718 2.265625-.910156 4.449219-2.015625 6.515625-3.265625l-.222656-.621094c-2.390625.261719-4.703125.578125-7.039063.679687-1.152344.101563-2.3125.121094-3.460937.15625-1.148438.035157-2.289063.074219-3.429688.046876-1.136719.003906-2.285156-.164063-3.414062-.304688-1.132813-.148438-2.238281-.113281-3.351563.089844-2.121094.425781-4.230468 1.050781-6.574218 2.394531 2.636718-4.363281 5.238281-8.757813 7.9375-13.074219l.101562-.171875c1.585938-2.664062 4.492188-4.351562 7.585938-4.167969.875.054688 1.738281.023438 2.589843-.054687 1.246094-.128906 2.433594-.515625 3.542969-1.09375 1.101562-.605469 2.171875-1.257813 3.257812-1.839844 1.089844-.570312 2.148438-1.203125 3.203126-1.828125 1.027343-.683594 2.050781-1.347656 3.027343-2.085937 1.96875-1.453125 3.804688-3.066407 5.492188-4.792969l-.371094-.546875c-2.25.851563-4.410156 1.738281-6.644531 2.417969zm0 0" fill="url(#g)"/><path d="m180.464844 138.027344c-2.726563.230468-5.542969.355468-8.40625.355468-2.019532 0-4-.058593-5.953125-.183593-.238281-13.871094-1.761719-30.890625-6.335938-47.910157-2.71875-10.136718-6.53125-20.285156-11.804687-29.773437-8.921875-16.03125-17.949219-22.675781-18.042969-22.742187-3.199219-2.316407-3.945313-6.789063-1.65625-10.003907 2.296875-3.207031 6.730469-3.984375 9.953125-1.714843 1.3125.917968 24.890625 18.074218 36.242188 63.496093 3.398437 13.546875 5.699218 29.589844 6.003906 48.476563zm0 0" fill="url(#h)"/><path d="m285.207031 236.089844c-.871093.164062-1.742187.324218-2.613281.460937-5.390625.910157-10.851562 1.335938-16.296875 1.347657-10.460937-.019532-20.929687-1.558594-30.871094-5.027344-4.941406-1.746094-9.746093-4.015625-14.121093-6.945313-2.664063-1.773437-5.195313-3.832031-7.355469-6.1875l-82.746094-91.890625c-2.132813-1.996094-4.023437-4.222656-5.460937-6.695312 1.078124.722656 13 9.664062 17.75 10.601562 9.484374 1.910156 19.195312 2.699219 28.855468 2.734375 3.628906-.007812 7.242188-.121093 10.851563-.359375 6.046875-.410156 12.066406-1.167968 18.011719-2.367187 4.738281-.964844 9.449218-2.1875 14.011718-3.894531 2.289063-.832032 4.503906-1.835938 6.730469-2.929688 2.171875-1.148438 4.292969-2.449219 6.363281-3.988281l29.125 29.128906c2.671875 7.484375 4.128906 15.542969 4.128906 23.941406 0 18.917969 5.230469 37.234375 14.761719 53.195313zm0 0" fill="url(#i)"/><path d="m343.339844 366.699219c-.007813-.378907-.003906-.765625-.011719-1.148438-.023437-.773437-.058594-1.539062-.089844-2.308593-.027343-.703126-.042969-1.40625-.078125-2.105469-.035156-.667969-.085937-1.328125-.128906-1.992188-.050781-.796875-.089844-1.597656-.152344-2.390625-.046875-.625-.109375-1.246094-.164062-1.871094-.074219-.828124-.136719-1.660156-.222656-2.484374-.058594-.566407-.128907-1.128907-.195313-1.695313-.097656-.875-.1875-1.753906-.300781-2.628906-.066406-.511719-.144532-1.015625-.214844-1.523438-.125-.925781-.246094-1.847656-.386719-2.769531-.070312-.464844-.15625-.925781-.230469-1.390625-.15625-.957031-.304687-1.914063-.476562-2.867187-.074219-.421876-.164062-.84375-.242188-1.265626-.183593-.988281-.367187-1.972656-.566406-2.953124-.082031-.386719-.171875-.769532-.253906-1.15625-.214844-1.011719-.429688-2.027344-.660156-3.03125-.074219-.324219-.160156-.648438-.238282-.972657-.25-1.0625-.503906-2.121093-.777343-3.175781-.070313-.277344-.152344-.550781-.222657-.828125-.289062-1.097656-.582031-2.191406-.890624-3.277344-.070313-.242187-.144532-.476562-.214844-.71875-.324219-1.121093-.652344-2.238281-1-3.351562-.058594-.191407-.125-.378907-.1875-.570313-.363282-1.15625-.734375-2.308594-1.125-3.457031-.046875-.144531-.101563-.289063-.152344-.4375-.40625-1.1875-.820312-2.367187-1.253906-3.542969-.039063-.105468-.082032-.210937-.121094-.316406-.445312-1.210938-.90625-2.421875-1.382812-3.621094-.023438-.066406-.054688-.132812-.082032-.199218-.488281-1.238282-.992187-2.46875-1.511718-3.691407-.011719-.03125-.027344-.0625-.039063-.09375-8.742187-20.558593-21.378906-39.0625-36.984375-54.585937-.035156-.035156-.070312-.070313-.101562-.105469-31.039063-30.828125-73.785157-49.878906-120.988282-49.878906-46.996094 0-89.574218 18.886719-120.574218 49.476562-.84375.832031-1.679688 1.675781-2.507813 2.527344-.136719.140625-.277344.28125-.414063.425781-.816406.84375-1.621093 1.695313-2.417968 2.554688-.144532.15625-.289063.3125-.433594.464844-.78125.855468-1.554688 1.714843-2.324219 2.582031-.148437.171875-.300781.339843-.449219.507812-.757812.859375-1.496093 1.730469-2.234374 2.601563-.15625.1875-.316407.371094-.472657.558594-.71875.863281-1.429687 1.738281-2.136719 2.613281-.164062.203125-.328124.40625-.488281.609375-.691406.867187-1.371093 1.746094-2.042969 2.625-.167968.222656-.339843.441406-.507812.664062-.660156.871094-1.308594 1.75-1.949219 2.632813-.175781.238281-.347656.476562-.519531.714843-.628906.871094-1.242188 1.75-1.855469 2.632813-.179687.261719-.363281.519531-.539062.78125-.59375.867187-1.175781 1.746094-1.753907 2.625-.1875.285156-.375.5625-.558593.847656-.5625.867188-1.113281 1.742188-1.65625 2.617188-.191407.304687-.382813.605469-.570313.910156-.53125.867187-1.050781 1.738281-1.566406 2.613281-.191406.324219-.386719.648438-.574219.972656-.5.859376-.988281 1.726563-1.472656 2.597657-.195313.347656-.394531.695312-.585937 1.046875-.46875.855468-.925782 1.714844-1.378907 2.578125-.199219.371093-.398437.742187-.589843 1.117187-.441407.847656-.867188 1.703125-1.292969 2.558594-.195313.394531-.394531.789062-.589844 1.1875-.410156.839844-.808594 1.6875-1.203125 2.535156-.195312.421875-.398438.839844-.589844 1.265625-.378906.832031-.746094 1.667969-1.113281 2.507813-.195313.445312-.394531.890625-.589844 1.339844-.351562.824218-.691406 1.652343-1.03125 2.484374-.191406.46875-.386719.9375-.574219 1.410157-.324218.816406-.640624 1.640625-.953124 2.464843-.1875.492188-.378907.980469-.5625 1.476563-.296876.808594-.582032 1.621094-.871094 2.4375-.183594.515625-.371094 1.03125-.546875 1.550781-.273438.800782-.535157 1.605469-.796875 2.410156-.175782.539063-.355469 1.078126-.527344 1.617188-.246094.792969-.484375 1.585938-.71875 2.382812-.167969.5625-.34375 1.125-.503906 1.691407-.226563.78125-.4375 1.566406-.648438 2.351562-.160156.585938-.324218 1.171875-.476562 1.761719-.203125.773438-.390625 1.554688-.582032 2.332031-.148437.605469-.300781 1.210938-.445312 1.820313-.179688.765625-.34375 1.539062-.511719 2.3125-.136719.625-.28125 1.246094-.410156 1.875-.160156.765625-.304687 1.53125-.453125 2.300781-.121094.640625-.25 1.28125-.367188 1.925781-.136718.757813-.261718 1.519532-.390624 2.285156-.109376.65625-.226563 1.3125-.328126 1.976563-.117187.753906-.21875 1.511719-.328124 2.265625-.09375.675781-.195313 1.351562-.28125 2.027344-.097657.75-.183594 1.507812-.269532 2.261718-.078125.6875-.164062 1.375-.234375 2.066407-.078125.75-.144531 1.5-.210937 2.253906-.0625.703125-.132813 1.402344-.1875 2.105469-.054688.75-.101563 1.503906-.148438 2.257812-.046875.707032-.097656 1.414063-.136718 2.128906-.039063.753907-.0625 1.507813-.09375 2.261719-.027344.71875-.0625005 1.4375-.0820318 2.15625-.0195312.753907-.0234374 1.511719-.0351562 2.269531-.0117188.722657-.02734375 1.445313-.02734375 2.171876 0 .785156.01171875 1.5625.01953125 2.339843.0117187.671875.0117187 1.34375.0273437 2.015625.03125 1.253906.0742188 2.5.1328128 3.734375.003906.128907.007812.253907.011718.378907 4.339844 88.765624 79.554688 133.671874 171.160157 133.847656 94.449219.179687 171.160156-46.566406 172.007812-140.449219.003907-.523437.019531-1.042969.019531-1.566406 0-1.09375-.019531-2.1875-.042968-3.28125zm0 0" fill="url(#j)"/><g fill="#ffb211"><path d="m115.523438 187.253906c0 2.816406-2.28125 5.097656-5.097657 5.097656-2.816406 0-5.101562-2.28125-5.101562-5.097656 0-2.820312 2.285156-5.101562 5.101562-5.101562 2.816407 0 5.097657 2.28125 5.097657 5.101562zm0 0"/><path d="m169.699219 195.792969c0 4.460937-3.613281 8.074219-8.074219 8.074219s-8.078125-3.613282-8.078125-8.074219c0-4.460938 3.617187-8.078125 8.078125-8.078125s8.074219 3.617187 8.074219 8.078125zm0 0"/><path d="m153.359375 173.25c0 6.859375-5.5625 12.421875-12.425781 12.421875-6.863282 0-12.425782-5.5625-12.425782-12.421875 0-6.863281 5.5625-12.425781 12.425782-12.425781 6.863281 0 12.425781 5.5625 12.425781 12.425781zm0 0"/><path d="m246.570312 427.066406c0 2.816406-2.285156 5.097656-5.101562 5.097656s-5.097656-2.28125-5.097656-5.097656 2.28125-5.101562 5.097656-5.101562 5.101562 2.285156 5.101562 5.101562zm0 0"/><path d="m284.402344 413.058594c0 6.863281-5.5625 12.425781-12.425782 12.425781-6.859374 0-12.421874-5.5625-12.421874-12.425781 0-6.859375 5.5625-12.421875 12.421874-12.421875 6.863282 0 12.425782 5.5625 12.425782 12.421875zm0 0"/></g><path d="m223.9375 110.996094c-2.390625 5.824218-6.125 10.542968-10.144531 14.355468-4.046875 3.828126-8.5 6.703126-13.070313 9.011719-9.167968 4.519531-18.882812 6.542969-28.53125 6.566407-9.671875-.027344-19.355468-2.023438-28.542968-6.542969-4.574219-2.269531-9.011719-5.222657-13.066407-9.035157-4.027343-3.78125-7.75-8.539062-10.144531-14.355468.996094.949218 1.886719 1.976562 2.914062 2.773437.945313.914063 1.984376 1.640625 2.976563 2.414063 2.066406 1.398437 4.09375 2.746094 6.234375 3.792968 4.222656 2.195313 8.546875 3.855469 12.941406 5.082032 8.769532 2.484375 17.75 3.511718 26.6875 3.554687 8.957032-.011719 17.910156-1.058593 26.6875-3.546875 4.378906-1.257812 8.734375-2.847656 12.949219-5.066406 2.117187-1.085938 4.175781-2.382812 6.226563-3.808594 2.011718-1.496094 3.976562-3.191406 5.882812-5.195312zm0 0" fill="url(#k)"/><path d="m236.667969 362.511719c0-68.007813-48.707031-123.140625-108.792969-123.140625s-108.792969 55.132812-108.792969 123.140625c0 68.011719 48.707031 123.144531 108.792969 123.144531s108.792969-55.132812 108.792969-123.144531zm0 0" fill="url(#l)"/></svg>